<mxfile host="app.diagrams.net" modified="2023-07-21T10:25:12.487Z" agent="Mozilla/5.0 (Windows NT 10.0; Win64; x64) AppleWebKit/537.36 (KHTML, like Gecko) Chrome/114.0.0.0 Safari/537.36" etag="FYJHk9ZAsQAYFNjqmr5y" version="21.6.5" type="device">
  <diagram name="Page-1" id="G5oN0HBI75uGvOIW6rh6">
    <mxGraphModel dx="696" dy="873" grid="1" gridSize="10" guides="1" tooltips="1" connect="1" arrows="1" fold="1" page="1" pageScale="1" pageWidth="700" pageHeight="1000" math="0" shadow="0">
      <root>
        <mxCell id="0" />
        <mxCell id="1" parent="0" />
        <mxCell id="Pb4zbcQdQX2SMNbKTdc--1" value="&lt;font style=&quot;font-size: 16px;&quot;&gt;&lt;b style=&quot;&quot;&gt;Frame 1&lt;/b&gt;&lt;/font&gt;&lt;font style=&quot;font-size: 16px;&quot;&gt;&lt;font style=&quot;font-size: 16px;&quot;&gt;&lt;b style=&quot;&quot;&gt;&lt;br&gt;&lt;/b&gt;&lt;/font&gt;&lt;span style=&quot;font-size: 11px;&quot;&gt;CAN SENDER Label + Entry&lt;/span&gt;&lt;br&gt;&lt;span style=&quot;font-size: 11px;&quot;&gt;CAN RECEIVER Label + Entry&lt;/span&gt;&lt;br&gt;&lt;font style=&quot;font-size: 11px;&quot;&gt;ID + Data Baudrate Label + Entry&lt;br&gt;&lt;/font&gt;&lt;span style=&quot;font-size: 11px;&quot;&gt;TEMP Label&lt;/span&gt;&lt;br&gt;&lt;/font&gt;" style="rounded=0;whiteSpace=wrap;html=1;" vertex="1" parent="1">
          <mxGeometry x="200" y="40" width="200" height="160" as="geometry" />
        </mxCell>
        <mxCell id="Pb4zbcQdQX2SMNbKTdc--2" value="&lt;font style=&quot;&quot;&gt;&lt;b style=&quot;font-size: 16px;&quot;&gt;Frame 5&lt;/b&gt;&lt;br&gt;&lt;font style=&quot;font-size: 11px;&quot;&gt;CAN BUS Label + Listbox&lt;/font&gt;&lt;br&gt;&lt;/font&gt;" style="rounded=0;whiteSpace=wrap;html=1;" vertex="1" parent="1">
          <mxGeometry x="800" y="320" width="520" height="270" as="geometry" />
        </mxCell>
        <mxCell id="Pb4zbcQdQX2SMNbKTdc--3" value="&lt;font style=&quot;font-size: 11px;&quot;&gt;&lt;b style=&quot;font-size: 16px;&quot;&gt;Frame 2&lt;/b&gt;&lt;br&gt;&lt;font style=&quot;font-size: 11px;&quot;&gt;RTR Label + CheckBox&lt;span style=&quot;white-space: pre;&quot;&gt;&#x9;&lt;/span&gt;&lt;span style=&quot;white-space: pre;&quot;&gt;&#x9;&lt;/span&gt;&lt;/font&gt;&lt;font style=&quot;font-size: 11px;&quot;&gt;BRS Label + CheckBox&lt;br&gt;&lt;/font&gt;&lt;font style=&quot;border-color: var(--border-color); font-size: 11px;&quot;&gt;EXT Label + CheckBox&lt;span style=&quot;white-space: pre;&quot;&gt;&#x9;&lt;/span&gt;&amp;nbsp;&amp;nbsp;&amp;nbsp; &amp;nbsp; &lt;span style=&quot;white-space: pre;&quot;&gt;&#x9;&lt;/span&gt;&amp;nbsp; &amp;nbsp;&lt;/font&gt;&lt;font style=&quot;border-color: var(--border-color); font-size: 11px;&quot;&gt;FD Label + CheckBox&lt;br&gt;&lt;/font&gt;ID Label + Entry&lt;span style=&quot;white-space: pre;&quot;&gt;&#x9;&lt;/span&gt;&lt;span style=&quot;white-space: pre;&quot;&gt;&#x9;&lt;/span&gt;&lt;span style=&quot;white-space: pre;&quot;&gt;&#x9;&lt;/span&gt;&amp;nbsp;&amp;nbsp;&lt;font style=&quot;font-size: 11px;&quot;&gt;Payload Label + Entry&lt;br&gt;&lt;/font&gt;ADD TO Q Button&lt;span style=&quot;white-space: pre;&quot;&gt;&#x9;&lt;/span&gt;&lt;span style=&quot;white-space: pre;&quot;&gt;&#x9;&lt;/span&gt;&lt;span style=&quot;white-space: pre;&quot;&gt;&#x9;&lt;/span&gt;&lt;span style=&quot;white-space: pre;&quot;&gt;&#x9;&lt;/span&gt;&lt;span style=&quot;white-space: pre;&quot;&gt;&#x9;&lt;/span&gt;&lt;span style=&quot;white-space: pre;&quot;&gt;&#x9;&lt;/span&gt;&lt;span style=&quot;white-space: pre;&quot;&gt;&#x9;&lt;/span&gt;&amp;nbsp; &amp;nbsp; &amp;nbsp;&amp;nbsp;&lt;br&gt;&lt;/font&gt;" style="rounded=0;whiteSpace=wrap;html=1;" vertex="1" parent="1">
          <mxGeometry x="200" y="220" width="580" height="80" as="geometry" />
        </mxCell>
        <mxCell id="Pb4zbcQdQX2SMNbKTdc--4" value="&lt;font style=&quot;&quot;&gt;&lt;b style=&quot;font-size: 16px;&quot;&gt;Frame 3&lt;/b&gt;&lt;br&gt;&lt;font style=&quot;font-size: 11px;&quot;&gt;MESSAGE LIST Label&lt;br&gt;&lt;/font&gt;&lt;font color=&quot;#ff3333&quot; style=&quot;font-size: 11px;&quot;&gt;&lt;b&gt;QUE Listbox&lt;/b&gt;&lt;/font&gt;&lt;br&gt;&lt;/font&gt;" style="rounded=0;whiteSpace=wrap;html=1;" vertex="1" parent="1">
          <mxGeometry x="200" y="320" width="580" height="270" as="geometry" />
        </mxCell>
        <mxCell id="Pb4zbcQdQX2SMNbKTdc--5" value="&lt;b style=&quot;&quot;&gt;Frame 1_1&lt;br&gt;&lt;/b&gt;&lt;font style=&quot;font-size: 10px;&quot;&gt;ID SAMPLE POINT&amp;nbsp; Label&lt;br&gt;DATA SAMPLE POINT Label&lt;br&gt;&lt;/font&gt;" style="rounded=0;whiteSpace=wrap;html=1;" vertex="1" parent="1">
          <mxGeometry x="420" y="40" width="170" height="40" as="geometry" />
        </mxCell>
        <mxCell id="Pb4zbcQdQX2SMNbKTdc--6" value="&lt;b style=&quot;&quot;&gt;Frame 1_2&lt;br&gt;&lt;/b&gt;&lt;font style=&quot;font-size: 10px;&quot;&gt;ID SAMPLE POINT&amp;nbsp; Entry&lt;br&gt;DATA SAMPLE POINT Entry&lt;br&gt;&lt;/font&gt;" style="rounded=0;whiteSpace=wrap;html=1;" vertex="1" parent="1">
          <mxGeometry x="420" y="100" width="170" height="40" as="geometry" />
        </mxCell>
        <mxCell id="Pb4zbcQdQX2SMNbKTdc--7" value="&lt;b style=&quot;&quot;&gt;Frame 1_3&lt;br&gt;&lt;/b&gt;&lt;font style=&quot;font-size: 10px;&quot;&gt;ID ACTUAL DATA Label&lt;br&gt;DATA ACTUAL DATA Label&lt;br&gt;&lt;/font&gt;" style="rounded=0;whiteSpace=wrap;html=1;" vertex="1" parent="1">
          <mxGeometry x="420" y="160" width="170" height="40" as="geometry" />
        </mxCell>
        <mxCell id="Pb4zbcQdQX2SMNbKTdc--8" value="&lt;b style=&quot;&quot;&gt;Frame 1_4&lt;br&gt;&lt;/b&gt;&lt;font style=&quot;font-size: 10px;&quot;&gt;STATUS Label&lt;br&gt;UP/DOWN Button&lt;br&gt;&lt;/font&gt;" style="rounded=0;whiteSpace=wrap;html=1;" vertex="1" parent="1">
          <mxGeometry x="610" y="40" width="170" height="70" as="geometry" />
        </mxCell>
        <mxCell id="Pb4zbcQdQX2SMNbKTdc--9" value="&lt;b style=&quot;&quot;&gt;Frame 1_5&lt;br&gt;&lt;/b&gt;&lt;font style=&quot;font-size: 10px;&quot;&gt;UP/DOWN STATUS Label&lt;br&gt;Develop Button&lt;br&gt;&lt;/font&gt;" style="rounded=0;whiteSpace=wrap;html=1;" vertex="1" parent="1">
          <mxGeometry x="610" y="130" width="170" height="70" as="geometry" />
        </mxCell>
        <mxCell id="Pb4zbcQdQX2SMNbKTdc--10" value="&lt;font style=&quot;font-size: 11px;&quot;&gt;&lt;b style=&quot;font-size: 16px;&quot;&gt;Frame 4&lt;/b&gt;&lt;br&gt;&lt;font style=&quot;font-size: 11px;&quot;&gt;IMPORT Button&lt;span style=&quot;white-space: pre;&quot;&gt;&#x9;&lt;/span&gt;SAVE Button&lt;br&gt;&lt;/font&gt;&lt;font style=&quot;font-size: 11px;&quot;&gt;CLEAR Button &lt;span style=&quot;white-space: pre;&quot;&gt;&#x9;&lt;/span&gt;EDIT Button&lt;br&gt;&lt;/font&gt;&lt;span style=&quot;white-space: pre;&quot;&gt;&#x9;&lt;/span&gt;&amp;nbsp; &amp;nbsp; &lt;span style=&quot;white-space: pre;&quot;&gt;&#x9;&lt;/span&gt;OK Button&amp;nbsp; &amp;nbsp; &lt;span style=&quot;white-space: pre;&quot;&gt;&#x9;&lt;/span&gt;&amp;nbsp; &amp;nbsp; &amp;nbsp; LOOP Label + CheckBox&lt;br&gt;SEND Button&lt;span style=&quot;white-space: pre;&quot;&gt;&#x9;&lt;/span&gt;&lt;span style=&quot;white-space: pre;&quot;&gt;&#x9;&lt;/span&gt;&lt;span style=&quot;white-space: pre;&quot;&gt;&#x9;&lt;/span&gt;&lt;span style=&quot;white-space: pre;&quot;&gt;&#x9;&lt;/span&gt;&amp;nbsp; &amp;nbsp; &amp;nbsp;&amp;nbsp;&lt;br&gt;&lt;/font&gt;" style="rounded=0;whiteSpace=wrap;html=1;" vertex="1" parent="1">
          <mxGeometry x="200" y="610" width="580" height="80" as="geometry" />
        </mxCell>
        <mxCell id="Pb4zbcQdQX2SMNbKTdc--12" value="&lt;font style=&quot;font-size: 11px;&quot;&gt;&lt;b style=&quot;font-size: 16px;&quot;&gt;Frame 6&lt;br&gt;&lt;/b&gt;&lt;font style=&quot;font-size: 11px;&quot;&gt;SAVE Button&lt;br&gt;&lt;/font&gt;&lt;font style=&quot;font-size: 11px;&quot;&gt;CLEAR Button&lt;br&gt;TEST Button&lt;br&gt;&lt;/font&gt;START TEST Button&lt;br&gt;&lt;/font&gt;" style="rounded=0;whiteSpace=wrap;html=1;" vertex="1" parent="1">
          <mxGeometry x="800" y="610" width="520" height="80" as="geometry" />
        </mxCell>
        <mxCell id="Pb4zbcQdQX2SMNbKTdc--14" value="&lt;font style=&quot;&quot;&gt;&lt;span style=&quot;font-weight: bold; font-size: 16px;&quot;&gt;FRAME 7&lt;/span&gt;&lt;br&gt;&lt;font style=&quot;font-size: 11px;&quot;&gt;INFO Label + Listbox&lt;/font&gt;&lt;br&gt;&lt;/font&gt;" style="rounded=0;whiteSpace=wrap;html=1;" vertex="1" parent="1">
          <mxGeometry x="200" y="710" width="300" height="160" as="geometry" />
        </mxCell>
        <mxCell id="Pb4zbcQdQX2SMNbKTdc--15" value="&lt;font style=&quot;&quot;&gt;&lt;span style=&quot;font-weight: bold; font-size: 16px;&quot;&gt;FRAME 7_2&lt;/span&gt;&lt;br&gt;&lt;font style=&quot;font-size: 11px;&quot;&gt;RANDOM LOOP Label + Listbox&lt;/font&gt;&lt;br&gt;&lt;/font&gt;" style="rounded=0;whiteSpace=wrap;html=1;" vertex="1" parent="1">
          <mxGeometry x="510" y="710" width="270" height="80" as="geometry" />
        </mxCell>
        <mxCell id="Pb4zbcQdQX2SMNbKTdc--16" value="&lt;font style=&quot;&quot;&gt;&lt;span style=&quot;font-weight: bold; font-size: 16px;&quot;&gt;FRAME 8&lt;br&gt;&lt;/span&gt;&lt;font style=&quot;font-size: 11px;&quot;&gt;DELAY Label + Listbox&lt;br&gt;&lt;/font&gt;&lt;font style=&quot;font-size: 11px;&quot;&gt;LOOP MSG Label + Listbox&lt;br&gt;&lt;/font&gt;&lt;font style=&quot;font-size: 11px;&quot;&gt;START Button&lt;/font&gt;&lt;br&gt;&lt;/font&gt;" style="rounded=0;whiteSpace=wrap;html=1;" vertex="1" parent="1">
          <mxGeometry x="510" y="800" width="270" height="70" as="geometry" />
        </mxCell>
      </root>
    </mxGraphModel>
  </diagram>
</mxfile>
